<mxfile host="app.diagrams.net" modified="2023-05-11T16:53:58.338Z" agent="Mozilla/5.0 (Windows NT 10.0; Win64; x64) AppleWebKit/537.36 (KHTML, like Gecko) Chrome/112.0.0.0 Safari/537.36" etag="XqVxYxyEXtf1CnkTU5XX" version="21.2.9" type="google">
  <diagram name="Communication" id="m750N5rxfDqkndSW3sWf">
    <mxGraphModel grid="1" page="1" gridSize="10" guides="1" tooltips="1" connect="1" arrows="1" fold="1" pageScale="1" pageWidth="1200" pageHeight="1600" math="0" shadow="0">
      <root>
        <mxCell id="0" />
        <mxCell id="1" parent="0" />
        <mxCell id="KZu_D-ZSFxlGsw8OqAe_-2" value="" style="endArrow=classic;html=1;rounded=0;" edge="1" parent="1">
          <mxGeometry width="50" height="50" relative="1" as="geometry">
            <mxPoint x="170" y="131" as="sourcePoint" />
            <mxPoint x="230" y="131" as="targetPoint" />
          </mxGeometry>
        </mxCell>
        <mxCell id="KZu_D-ZSFxlGsw8OqAe_-3" value="" style="verticalLabelPosition=bottom;html=1;verticalAlign=top;strokeWidth=2;shape=mxgraph.lean_mapping.physical_pull;pointerEvents=1;" vertex="1" parent="1">
          <mxGeometry x="140" y="171" width="50" height="50" as="geometry" />
        </mxCell>
        <mxCell id="1c55XD9gG6tJ-zT5A_Wb-12" value="" style="rounded=0;whiteSpace=wrap;html=1;strokeWidth=2;" vertex="1" parent="1">
          <mxGeometry x="100" y="40" width="960" height="220" as="geometry" />
        </mxCell>
        <mxCell id="1c55XD9gG6tJ-zT5A_Wb-13" value="" style="rounded=0;whiteSpace=wrap;html=1;strokeWidth=2;" vertex="1" parent="1">
          <mxGeometry x="100" y="40" width="200" height="40" as="geometry" />
        </mxCell>
        <mxCell id="1c55XD9gG6tJ-zT5A_Wb-14" value="&lt;font style=&quot;font-size: 16px;&quot;&gt;&lt;b&gt;sd Register Hire info&lt;/b&gt;&lt;/font&gt;" style="text;html=1;resizable=0;autosize=1;align=center;verticalAlign=middle;points=[];fillColor=none;strokeColor=none;rounded=0;strokeWidth=2;" vertex="1" parent="1">
          <mxGeometry x="110" y="45" width="180" height="30" as="geometry" />
        </mxCell>
        <mxCell id="1c55XD9gG6tJ-zT5A_Wb-18" value="companyUser" style="shape=umlActor;verticalLabelPosition=bottom;verticalAlign=top;html=1;outlineConnect=0;" vertex="1" parent="1">
          <mxGeometry x="160" y="121" width="40" height="80" as="geometry" />
        </mxCell>
        <mxCell id="1c55XD9gG6tJ-zT5A_Wb-20" value=":RegisterHireInfoUI" style="text;html=1;resizable=0;autosize=1;align=center;verticalAlign=middle;points=[];fillColor=none;strokeColor=none;rounded=0;" vertex="1" parent="1">
          <mxGeometry x="384" y="191" width="130" height="30" as="geometry" />
        </mxCell>
        <mxCell id="1c55XD9gG6tJ-zT5A_Wb-21" value="" style="shape=umlBoundary;whiteSpace=wrap;html=1;" vertex="1" parent="1">
          <mxGeometry x="399" y="111" width="100" height="80" as="geometry" />
        </mxCell>
        <mxCell id="1c55XD9gG6tJ-zT5A_Wb-28" value="2.InputHireInfoData()" style="text;html=1;resizable=0;autosize=1;align=left;verticalAlign=middle;points=[];fillColor=none;strokeColor=none;rounded=0;" vertex="1" parent="1">
          <mxGeometry x="229" y="124" width="140" height="30" as="geometry" />
        </mxCell>
        <mxCell id="1c55XD9gG6tJ-zT5A_Wb-29" value="" style="rounded=0;whiteSpace=wrap;html=1;strokeWidth=2;" vertex="1" parent="1">
          <mxGeometry x="100" y="330" width="970" height="340" as="geometry" />
        </mxCell>
        <mxCell id="1c55XD9gG6tJ-zT5A_Wb-30" value="companyUser" style="shape=umlActor;verticalLabelPosition=bottom;verticalAlign=top;html=1;outlineConnect=0;" vertex="1" parent="1">
          <mxGeometry x="201" y="390" width="40" height="80" as="geometry" />
        </mxCell>
        <mxCell id="1c55XD9gG6tJ-zT5A_Wb-31" value="" style="rounded=0;whiteSpace=wrap;html=1;strokeWidth=2;" vertex="1" parent="1">
          <mxGeometry x="100" y="330" width="200" height="40" as="geometry" />
        </mxCell>
        <mxCell id="1c55XD9gG6tJ-zT5A_Wb-32" value="&lt;font style=&quot;font-size: 16px;&quot;&gt;&lt;b&gt;sd Show&amp;nbsp;&lt;/b&gt;&lt;b style=&quot;border-color: var(--border-color);&quot;&gt;Hire&lt;/b&gt;&lt;b&gt;&amp;nbsp;info&lt;/b&gt;&lt;/font&gt;" style="text;html=1;resizable=0;autosize=1;align=center;verticalAlign=middle;points=[];fillColor=none;strokeColor=none;rounded=0;strokeWidth=2;" vertex="1" parent="1">
          <mxGeometry x="120" y="335" width="160" height="30" as="geometry" />
        </mxCell>
        <mxCell id="1c55XD9gG6tJ-zT5A_Wb-33" value=":ShowHireInfoUI" style="text;html=1;resizable=0;autosize=1;align=center;verticalAlign=middle;points=[];fillColor=none;strokeColor=none;rounded=0;" vertex="1" parent="1">
          <mxGeometry x="406" y="470" width="110" height="30" as="geometry" />
        </mxCell>
        <mxCell id="1c55XD9gG6tJ-zT5A_Wb-34" value="" style="endArrow=none;html=1;rounded=0;strokeWidth=2;" edge="1" parent="1">
          <mxGeometry width="50" height="50" relative="1" as="geometry">
            <mxPoint x="401" y="430" as="sourcePoint" />
            <mxPoint x="271" y="430" as="targetPoint" />
          </mxGeometry>
        </mxCell>
        <mxCell id="1c55XD9gG6tJ-zT5A_Wb-35" value="" style="shape=umlBoundary;whiteSpace=wrap;html=1;" vertex="1" parent="1">
          <mxGeometry x="411" y="390" width="100" height="80" as="geometry" />
        </mxCell>
        <mxCell id="1c55XD9gG6tJ-zT5A_Wb-39" value="" style="ellipse;shape=umlControl;whiteSpace=wrap;html=1;" vertex="1" parent="1">
          <mxGeometry x="685" y="116" width="70" height="80" as="geometry" />
        </mxCell>
        <mxCell id="1c55XD9gG6tJ-zT5A_Wb-40" value="" style="endArrow=classic;html=1;rounded=0;strokeWidth=2;" edge="1" parent="1">
          <mxGeometry width="50" height="50" relative="1" as="geometry">
            <mxPoint x="510" y="146" as="sourcePoint" />
            <mxPoint x="660" y="146" as="targetPoint" />
          </mxGeometry>
        </mxCell>
        <mxCell id="1c55XD9gG6tJ-zT5A_Wb-41" value="" style="endArrow=classic;html=1;rounded=0;strokeWidth=2;" edge="1" parent="1">
          <mxGeometry width="50" height="50" relative="1" as="geometry">
            <mxPoint x="660" y="166" as="sourcePoint" />
            <mxPoint x="510" y="166" as="targetPoint" />
          </mxGeometry>
        </mxCell>
        <mxCell id="1c55XD9gG6tJ-zT5A_Wb-42" value="1:startInterface()" style="text;html=1;resizable=0;autosize=1;align=center;verticalAlign=middle;points=[];fillColor=none;strokeColor=none;rounded=0;" vertex="1" parent="1">
          <mxGeometry x="530" y="171" width="110" height="30" as="geometry" />
        </mxCell>
        <mxCell id="1c55XD9gG6tJ-zT5A_Wb-43" value=":RegisterHireIInfo" style="text;html=1;resizable=0;autosize=1;align=center;verticalAlign=middle;points=[];fillColor=none;strokeColor=none;rounded=0;" vertex="1" parent="1">
          <mxGeometry x="660" y="196" width="120" height="30" as="geometry" />
        </mxCell>
        <mxCell id="1c55XD9gG6tJ-zT5A_Wb-44" value="&lt;br&gt;2.1:sendHireInfoData()" style="text;html=1;resizable=0;autosize=1;align=left;verticalAlign=middle;points=[];fillColor=none;strokeColor=none;rounded=0;" vertex="1" parent="1">
          <mxGeometry x="519" y="105" width="140" height="40" as="geometry" />
        </mxCell>
        <mxCell id="1c55XD9gG6tJ-zT5A_Wb-51" value="" style="ellipse;shape=umlControl;whiteSpace=wrap;html=1;" vertex="1" parent="1">
          <mxGeometry x="701" y="390" width="70" height="80" as="geometry" />
        </mxCell>
        <mxCell id="1c55XD9gG6tJ-zT5A_Wb-52" value=":ShowHireInfo" style="text;html=1;resizable=0;autosize=1;align=center;verticalAlign=middle;points=[];fillColor=none;strokeColor=none;rounded=0;" vertex="1" parent="1">
          <mxGeometry x="686" y="470" width="100" height="30" as="geometry" />
        </mxCell>
        <mxCell id="1c55XD9gG6tJ-zT5A_Wb-58" value="" style="endArrow=none;html=1;rounded=0;strokeWidth=2;exitX=0.667;exitY=0.34;exitDx=0;exitDy=0;exitPerimeter=0;" edge="1" parent="1">
          <mxGeometry width="50" height="50" relative="1" as="geometry">
            <mxPoint x="379" y="170.5" as="sourcePoint" />
            <mxPoint x="219" y="170" as="targetPoint" />
          </mxGeometry>
        </mxCell>
        <mxCell id="1c55XD9gG6tJ-zT5A_Wb-60" value="" style="ellipse;shape=umlEntity;whiteSpace=wrap;html=1;" vertex="1" parent="1">
          <mxGeometry x="936" y="110" width="80" height="80" as="geometry" />
        </mxCell>
        <mxCell id="1c55XD9gG6tJ-zT5A_Wb-61" value="newHireInfo:HireInfo" style="text;html=1;resizable=0;autosize=1;align=center;verticalAlign=middle;points=[];fillColor=none;strokeColor=none;rounded=0;" vertex="1" parent="1">
          <mxGeometry x="911" y="190" width="130" height="30" as="geometry" />
        </mxCell>
        <mxCell id="1c55XD9gG6tJ-zT5A_Wb-79" value="" style="endArrow=none;html=1;rounded=0;strokeWidth=2;" edge="1" parent="1">
          <mxGeometry width="50" height="50" relative="1" as="geometry">
            <mxPoint x="940" y="170.5" as="sourcePoint" />
            <mxPoint x="765" y="170.5" as="targetPoint" />
          </mxGeometry>
        </mxCell>
        <mxCell id="1c55XD9gG6tJ-zT5A_Wb-80" value="" style="endArrow=classic;html=1;rounded=0;strokeWidth=2;" edge="1" parent="1">
          <mxGeometry width="50" height="50" relative="1" as="geometry">
            <mxPoint x="777" y="149" as="sourcePoint" />
            <mxPoint x="927" y="149" as="targetPoint" />
          </mxGeometry>
        </mxCell>
        <mxCell id="1c55XD9gG6tJ-zT5A_Wb-81" value="2.1.1:HireInfo()" style="text;html=1;resizable=0;autosize=1;align=center;verticalAlign=middle;points=[];fillColor=none;strokeColor=none;rounded=0;" vertex="1" parent="1">
          <mxGeometry x="797" y="121" width="100" height="30" as="geometry" />
        </mxCell>
        <mxCell id="1c55XD9gG6tJ-zT5A_Wb-87" value="" style="endArrow=none;html=1;rounded=0;strokeWidth=2;" edge="1" parent="1">
          <mxGeometry width="50" height="50" relative="1" as="geometry">
            <mxPoint x="660" y="429.5" as="sourcePoint" />
            <mxPoint x="530" y="429.5" as="targetPoint" />
          </mxGeometry>
        </mxCell>
        <mxCell id="1c55XD9gG6tJ-zT5A_Wb-88" value="" style="ellipse;shape=umlEntity;whiteSpace=wrap;html=1;" vertex="1" parent="1">
          <mxGeometry x="696" y="564" width="80" height="80" as="geometry" />
        </mxCell>
        <mxCell id="1c55XD9gG6tJ-zT5A_Wb-89" value=":HireInfo" style="text;html=1;resizable=0;autosize=1;align=center;verticalAlign=middle;points=[];fillColor=none;strokeColor=none;rounded=0;" vertex="1" parent="1">
          <mxGeometry x="706" y="644" width="70" height="30" as="geometry" />
        </mxCell>
        <mxCell id="1c55XD9gG6tJ-zT5A_Wb-91" value="1: *[For all companyUser&#39;s HireInfos]: getHireInfo()" style="text;html=1;align=center;verticalAlign=middle;resizable=0;points=[];autosize=1;strokeColor=none;fillColor=none;" vertex="1" parent="1">
          <mxGeometry x="766" y="510" width="290" height="30" as="geometry" />
        </mxCell>
        <mxCell id="1c55XD9gG6tJ-zT5A_Wb-94" value="" style="endArrow=classic;html=1;rounded=0;strokeWidth=2;" edge="1" parent="1">
          <mxGeometry width="50" height="50" relative="1" as="geometry">
            <mxPoint x="741" y="504" as="sourcePoint" />
            <mxPoint x="741" y="554" as="targetPoint" />
          </mxGeometry>
        </mxCell>
        <mxCell id="1c55XD9gG6tJ-zT5A_Wb-99" value="" style="rounded=0;whiteSpace=wrap;html=1;strokeWidth=2;" vertex="1" parent="1">
          <mxGeometry x="100" y="738" width="980" height="372" as="geometry" />
        </mxCell>
        <mxCell id="1c55XD9gG6tJ-zT5A_Wb-100" value="" style="rounded=0;whiteSpace=wrap;html=1;strokeWidth=2;" vertex="1" parent="1">
          <mxGeometry x="100" y="738" width="200" height="40" as="geometry" />
        </mxCell>
        <mxCell id="1c55XD9gG6tJ-zT5A_Wb-101" value="&lt;font style=&quot;font-size: 16px;&quot;&gt;&lt;b&gt;sd Update&amp;nbsp;&lt;/b&gt;&lt;b style=&quot;border-color: var(--border-color);&quot;&gt;Hire&amp;nbsp;&lt;/b&gt;&lt;b&gt;info&lt;/b&gt;&lt;/font&gt;" style="text;html=1;resizable=0;autosize=1;align=center;verticalAlign=middle;points=[];fillColor=none;strokeColor=none;rounded=0;strokeWidth=2;" vertex="1" parent="1">
          <mxGeometry x="115" y="743" width="170" height="30" as="geometry" />
        </mxCell>
        <mxCell id="1c55XD9gG6tJ-zT5A_Wb-104" value="" style="rounded=0;whiteSpace=wrap;html=1;strokeWidth=2;" vertex="1" parent="1">
          <mxGeometry x="105" y="1171" width="975" height="410" as="geometry" />
        </mxCell>
        <mxCell id="1c55XD9gG6tJ-zT5A_Wb-105" value="" style="rounded=0;whiteSpace=wrap;html=1;strokeWidth=2;" vertex="1" parent="1">
          <mxGeometry x="105" y="1171" width="200" height="40" as="geometry" />
        </mxCell>
        <mxCell id="1c55XD9gG6tJ-zT5A_Wb-106" value="&lt;font style=&quot;font-size: 16px;&quot;&gt;&lt;b&gt;sd Delete&amp;nbsp;&lt;/b&gt;&lt;b style=&quot;border-color: var(--border-color);&quot;&gt;Hire&amp;nbsp;&lt;/b&gt;&lt;b&gt;info&lt;/b&gt;&lt;/font&gt;" style="text;html=1;resizable=0;autosize=1;align=center;verticalAlign=middle;points=[];fillColor=none;strokeColor=none;rounded=0;strokeWidth=2;" vertex="1" parent="1">
          <mxGeometry x="125" y="1176" width="160" height="30" as="geometry" />
        </mxCell>
        <mxCell id="1c55XD9gG6tJ-zT5A_Wb-107" value="companyUser" style="shape=umlActor;verticalLabelPosition=bottom;verticalAlign=top;html=1;outlineConnect=0;" vertex="1" parent="1">
          <mxGeometry x="220" y="788" width="40" height="80" as="geometry" />
        </mxCell>
        <mxCell id="1c55XD9gG6tJ-zT5A_Wb-108" value=":UpdateHireInfoUI" style="text;html=1;resizable=0;autosize=1;align=center;verticalAlign=middle;points=[];fillColor=none;strokeColor=none;rounded=0;" vertex="1" parent="1">
          <mxGeometry x="420" y="887" width="120" height="30" as="geometry" />
        </mxCell>
        <mxCell id="1c55XD9gG6tJ-zT5A_Wb-109" value="" style="endArrow=none;html=1;rounded=0;strokeWidth=2;" edge="1" parent="1">
          <mxGeometry width="50" height="50" relative="1" as="geometry">
            <mxPoint x="420" y="847" as="sourcePoint" />
            <mxPoint x="290" y="847" as="targetPoint" />
          </mxGeometry>
        </mxCell>
        <mxCell id="1c55XD9gG6tJ-zT5A_Wb-110" value="" style="shape=umlBoundary;whiteSpace=wrap;html=1;" vertex="1" parent="1">
          <mxGeometry x="430" y="807" width="100" height="80" as="geometry" />
        </mxCell>
        <mxCell id="1c55XD9gG6tJ-zT5A_Wb-113" value="" style="ellipse;shape=umlControl;whiteSpace=wrap;html=1;" vertex="1" parent="1">
          <mxGeometry x="720" y="807" width="70" height="80" as="geometry" />
        </mxCell>
        <mxCell id="1c55XD9gG6tJ-zT5A_Wb-114" value=":UpdateHireInfo" style="text;html=1;resizable=0;autosize=1;align=center;verticalAlign=middle;points=[];fillColor=none;strokeColor=none;rounded=0;" vertex="1" parent="1">
          <mxGeometry x="700" y="887" width="110" height="30" as="geometry" />
        </mxCell>
        <mxCell id="1c55XD9gG6tJ-zT5A_Wb-115" value="" style="endArrow=classic;html=1;rounded=0;strokeWidth=2;" edge="1" parent="1">
          <mxGeometry width="50" height="50" relative="1" as="geometry">
            <mxPoint x="545" y="834" as="sourcePoint" />
            <mxPoint x="695" y="834" as="targetPoint" />
          </mxGeometry>
        </mxCell>
        <mxCell id="1c55XD9gG6tJ-zT5A_Wb-116" value="3.1:sendUpdateHireInfo()" style="text;html=1;resizable=0;autosize=1;align=left;verticalAlign=middle;points=[];fillColor=none;strokeColor=none;rounded=0;" vertex="1" parent="1">
          <mxGeometry x="545" y="796.5" width="160" height="30" as="geometry" />
        </mxCell>
        <mxCell id="1c55XD9gG6tJ-zT5A_Wb-117" value="" style="endArrow=none;html=1;rounded=0;strokeWidth=2;" edge="1" parent="1">
          <mxGeometry width="50" height="50" relative="1" as="geometry">
            <mxPoint x="679" y="846.5" as="sourcePoint" />
            <mxPoint x="549" y="846.5" as="targetPoint" />
          </mxGeometry>
        </mxCell>
        <mxCell id="1c55XD9gG6tJ-zT5A_Wb-118" value="" style="endArrow=classic;html=1;rounded=0;strokeWidth=2;" edge="1" parent="1">
          <mxGeometry width="50" height="50" relative="1" as="geometry">
            <mxPoint x="760" y="921" as="sourcePoint" />
            <mxPoint x="760" y="971" as="targetPoint" />
          </mxGeometry>
        </mxCell>
        <mxCell id="1c55XD9gG6tJ-zT5A_Wb-119" value="" style="endArrow=classic;html=1;rounded=0;strokeWidth=2;" edge="1" parent="1">
          <mxGeometry width="50" height="50" relative="1" as="geometry">
            <mxPoint x="671" y="446" as="sourcePoint" />
            <mxPoint x="521" y="446" as="targetPoint" />
          </mxGeometry>
        </mxCell>
        <mxCell id="1c55XD9gG6tJ-zT5A_Wb-121" value="" style="endArrow=classic;html=1;rounded=0;strokeWidth=2;" edge="1" parent="1">
          <mxGeometry width="50" height="50" relative="1" as="geometry">
            <mxPoint x="229" y="151" as="sourcePoint" />
            <mxPoint x="379" y="151" as="targetPoint" />
          </mxGeometry>
        </mxCell>
        <mxCell id="1c55XD9gG6tJ-zT5A_Wb-122" value="" style="ellipse;shape=umlEntity;whiteSpace=wrap;html=1;" vertex="1" parent="1">
          <mxGeometry x="715" y="980" width="80" height="80" as="geometry" />
        </mxCell>
        <mxCell id="1c55XD9gG6tJ-zT5A_Wb-123" value=":HireInfo" style="text;html=1;resizable=0;autosize=1;align=center;verticalAlign=middle;points=[];fillColor=none;strokeColor=none;rounded=0;" vertex="1" parent="1">
          <mxGeometry x="725" y="1060" width="70" height="30" as="geometry" />
        </mxCell>
        <mxCell id="1c55XD9gG6tJ-zT5A_Wb-127" value="&lt;span style=&quot;color: rgb(0, 0, 0); font-family: Helvetica; font-size: 12px; font-style: normal; font-variant-ligatures: normal; font-variant-caps: normal; font-weight: 400; letter-spacing: normal; orphans: 2; text-align: center; text-indent: 0px; text-transform: none; widows: 2; word-spacing: 0px; -webkit-text-stroke-width: 0px; background-color: rgb(251, 251, 251); text-decoration-thickness: initial; text-decoration-style: initial; text-decoration-color: initial; float: none; display: inline !important;&quot;&gt;1:&amp;nbsp;&lt;/span&gt;*[For all companyUser&#39;s HireInfos]: getHiretInfo()&lt;br style=&quot;border-color: var(--border-color); color: rgb(0, 0, 0); font-family: Helvetica; font-size: 12px; font-style: normal; font-variant-ligatures: normal; font-variant-caps: normal; font-weight: 400; letter-spacing: normal; orphans: 2; text-align: center; text-indent: 0px; text-transform: none; widows: 2; word-spacing: 0px; -webkit-text-stroke-width: 0px; background-color: rgb(251, 251, 251); text-decoration-thickness: initial; text-decoration-style: initial; text-decoration-color: initial;&quot;&gt;&lt;span style=&quot;color: rgb(0, 0, 0); font-family: Helvetica; font-size: 12px; font-style: normal; font-variant-ligatures: normal; font-variant-caps: normal; font-weight: 400; letter-spacing: normal; orphans: 2; text-align: center; text-indent: 0px; text-transform: none; widows: 2; word-spacing: 0px; -webkit-text-stroke-width: 0px; background-color: rgb(251, 251, 251); text-decoration-thickness: initial; text-decoration-style: initial; text-decoration-color: initial; float: none; display: inline !important;&quot;&gt;3.1.1: update()&lt;/span&gt;" style="text;whiteSpace=wrap;html=1;" vertex="1" parent="1">
          <mxGeometry x="780" y="960" width="360" height="50" as="geometry" />
        </mxCell>
        <mxCell id="1c55XD9gG6tJ-zT5A_Wb-128" value="" style="endArrow=classic;html=1;rounded=0;strokeWidth=2;" edge="1" parent="1">
          <mxGeometry width="50" height="50" relative="1" as="geometry">
            <mxPoint x="690" y="866" as="sourcePoint" />
            <mxPoint x="540" y="866" as="targetPoint" />
          </mxGeometry>
        </mxCell>
        <mxCell id="1c55XD9gG6tJ-zT5A_Wb-129" value="2:startInterface()" style="text;html=1;resizable=0;autosize=1;align=left;verticalAlign=middle;points=[];fillColor=none;strokeColor=none;rounded=0;" vertex="1" parent="1">
          <mxGeometry x="545" y="866.5" width="110" height="30" as="geometry" />
        </mxCell>
        <mxCell id="1c55XD9gG6tJ-zT5A_Wb-130" value="" style="endArrow=classic;html=1;rounded=0;strokeWidth=2;" edge="1" parent="1">
          <mxGeometry width="50" height="50" relative="1" as="geometry">
            <mxPoint x="275" y="837" as="sourcePoint" />
            <mxPoint x="425" y="837" as="targetPoint" />
          </mxGeometry>
        </mxCell>
        <mxCell id="1c55XD9gG6tJ-zT5A_Wb-134" value="companyUser" style="shape=umlActor;verticalLabelPosition=bottom;verticalAlign=top;html=1;outlineConnect=0;" vertex="1" parent="1">
          <mxGeometry x="190" y="1238" width="40" height="80" as="geometry" />
        </mxCell>
        <mxCell id="1c55XD9gG6tJ-zT5A_Wb-135" value=":DeleteHireInfoUI" style="text;html=1;resizable=0;autosize=1;align=center;verticalAlign=middle;points=[];fillColor=none;strokeColor=none;rounded=0;" vertex="1" parent="1">
          <mxGeometry x="390" y="1337" width="120" height="30" as="geometry" />
        </mxCell>
        <mxCell id="1c55XD9gG6tJ-zT5A_Wb-136" value="" style="endArrow=none;html=1;rounded=0;strokeWidth=2;" edge="1" parent="1">
          <mxGeometry width="50" height="50" relative="1" as="geometry">
            <mxPoint x="390" y="1297" as="sourcePoint" />
            <mxPoint x="260" y="1297" as="targetPoint" />
          </mxGeometry>
        </mxCell>
        <mxCell id="1c55XD9gG6tJ-zT5A_Wb-137" value="" style="shape=umlBoundary;whiteSpace=wrap;html=1;" vertex="1" parent="1">
          <mxGeometry x="400" y="1257" width="100" height="80" as="geometry" />
        </mxCell>
        <mxCell id="1c55XD9gG6tJ-zT5A_Wb-138" value="3:DeleteHireInfo()" style="text;html=1;resizable=0;autosize=1;align=left;verticalAlign=middle;points=[];fillColor=none;strokeColor=none;rounded=0;" vertex="1" parent="1">
          <mxGeometry x="259" y="1251" width="120" height="30" as="geometry" />
        </mxCell>
        <mxCell id="1c55XD9gG6tJ-zT5A_Wb-139" value="" style="ellipse;shape=umlControl;whiteSpace=wrap;html=1;" vertex="1" parent="1">
          <mxGeometry x="690" y="1257" width="70" height="80" as="geometry" />
        </mxCell>
        <mxCell id="1c55XD9gG6tJ-zT5A_Wb-140" value=":DeleteHireInfo" style="text;html=1;resizable=0;autosize=1;align=center;verticalAlign=middle;points=[];fillColor=none;strokeColor=none;rounded=0;" vertex="1" parent="1">
          <mxGeometry x="675" y="1337" width="100" height="30" as="geometry" />
        </mxCell>
        <mxCell id="1c55XD9gG6tJ-zT5A_Wb-141" value="" style="endArrow=classic;html=1;rounded=0;strokeWidth=2;" edge="1" parent="1">
          <mxGeometry width="50" height="50" relative="1" as="geometry">
            <mxPoint x="515" y="1284" as="sourcePoint" />
            <mxPoint x="665" y="1284" as="targetPoint" />
          </mxGeometry>
        </mxCell>
        <mxCell id="1c55XD9gG6tJ-zT5A_Wb-142" value="3.1:sendDeleteHireInfo()" style="text;html=1;resizable=0;autosize=1;align=left;verticalAlign=middle;points=[];fillColor=none;strokeColor=none;rounded=0;" vertex="1" parent="1">
          <mxGeometry x="515" y="1256.5" width="150" height="30" as="geometry" />
        </mxCell>
        <mxCell id="1c55XD9gG6tJ-zT5A_Wb-143" value="" style="endArrow=none;html=1;rounded=0;strokeWidth=2;" edge="1" parent="1">
          <mxGeometry width="50" height="50" relative="1" as="geometry">
            <mxPoint x="649" y="1296.5" as="sourcePoint" />
            <mxPoint x="519" y="1296.5" as="targetPoint" />
          </mxGeometry>
        </mxCell>
        <mxCell id="1c55XD9gG6tJ-zT5A_Wb-144" value="" style="endArrow=classic;html=1;rounded=0;strokeWidth=2;" edge="1" parent="1">
          <mxGeometry width="50" height="50" relative="1" as="geometry">
            <mxPoint x="660" y="1316" as="sourcePoint" />
            <mxPoint x="510" y="1316" as="targetPoint" />
          </mxGeometry>
        </mxCell>
        <mxCell id="1c55XD9gG6tJ-zT5A_Wb-145" value="2:startInterface()" style="text;html=1;resizable=0;autosize=1;align=left;verticalAlign=middle;points=[];fillColor=none;strokeColor=none;rounded=0;" vertex="1" parent="1">
          <mxGeometry x="515" y="1316.5" width="110" height="30" as="geometry" />
        </mxCell>
        <mxCell id="1c55XD9gG6tJ-zT5A_Wb-146" value="" style="endArrow=classic;html=1;rounded=0;strokeWidth=2;" edge="1" parent="1">
          <mxGeometry width="50" height="50" relative="1" as="geometry">
            <mxPoint x="245" y="1287" as="sourcePoint" />
            <mxPoint x="395" y="1287" as="targetPoint" />
          </mxGeometry>
        </mxCell>
        <mxCell id="1c55XD9gG6tJ-zT5A_Wb-147" value="" style="endArrow=classic;html=1;rounded=0;strokeWidth=2;" edge="1" parent="1">
          <mxGeometry width="50" height="50" relative="1" as="geometry">
            <mxPoint x="730" y="1371" as="sourcePoint" />
            <mxPoint x="730" y="1421" as="targetPoint" />
          </mxGeometry>
        </mxCell>
        <mxCell id="1c55XD9gG6tJ-zT5A_Wb-148" value="" style="ellipse;shape=umlEntity;whiteSpace=wrap;html=1;" vertex="1" parent="1">
          <mxGeometry x="685" y="1430" width="80" height="80" as="geometry" />
        </mxCell>
        <mxCell id="1c55XD9gG6tJ-zT5A_Wb-149" value=":HireInfo" style="text;html=1;resizable=0;autosize=1;align=center;verticalAlign=middle;points=[];fillColor=none;strokeColor=none;rounded=0;" vertex="1" parent="1">
          <mxGeometry x="690" y="1510" width="70" height="30" as="geometry" />
        </mxCell>
        <mxCell id="1c55XD9gG6tJ-zT5A_Wb-150" value="&lt;span style=&quot;color: rgb(0, 0, 0); font-family: Helvetica; font-size: 12px; font-style: normal; font-variant-ligatures: normal; font-variant-caps: normal; font-weight: 400; letter-spacing: normal; orphans: 2; text-align: center; text-indent: 0px; text-transform: none; widows: 2; word-spacing: 0px; -webkit-text-stroke-width: 0px; background-color: rgb(251, 251, 251); text-decoration-thickness: initial; text-decoration-style: initial; text-decoration-color: initial; float: none; display: inline !important;&quot;&gt;1:&amp;nbsp;&lt;/span&gt;*[For all companyUser&#39;s&amp;nbsp;HireInfos]: getHireInfo()&lt;br style=&quot;border-color: var(--border-color); color: rgb(0, 0, 0); font-family: Helvetica; font-size: 12px; font-style: normal; font-variant-ligatures: normal; font-variant-caps: normal; font-weight: 400; letter-spacing: normal; orphans: 2; text-align: center; text-indent: 0px; text-transform: none; widows: 2; word-spacing: 0px; -webkit-text-stroke-width: 0px; background-color: rgb(251, 251, 251); text-decoration-thickness: initial; text-decoration-style: initial; text-decoration-color: initial;&quot;&gt;&lt;span style=&quot;color: rgb(0, 0, 0); font-family: Helvetica; font-size: 12px; font-style: normal; font-variant-ligatures: normal; font-variant-caps: normal; font-weight: 400; letter-spacing: normal; orphans: 2; text-align: center; text-indent: 0px; text-transform: none; widows: 2; word-spacing: 0px; -webkit-text-stroke-width: 0px; background-color: rgb(251, 251, 251); text-decoration-thickness: initial; text-decoration-style: initial; text-decoration-color: initial; float: none; display: inline !important;&quot;&gt;3.1.1: ~HireInfo()&lt;/span&gt;" style="text;whiteSpace=wrap;html=1;" vertex="1" parent="1">
          <mxGeometry x="750" y="1410" width="360" height="50" as="geometry" />
        </mxCell>
        <mxCell id="Jop8jnYc0TtEztl0HgPe-1" value="2: startInterface()" style="text;html=1;align=center;verticalAlign=middle;resizable=0;points=[];autosize=1;strokeColor=none;fillColor=none;" vertex="1" parent="1">
          <mxGeometry x="536" y="448" width="110" height="30" as="geometry" />
        </mxCell>
        <mxCell id="EocNy_oLR_mmHMSm16_A-1" value="" style="endArrow=none;html=1;rounded=0;strokeWidth=2;" edge="1" parent="1">
          <mxGeometry width="50" height="50" relative="1" as="geometry">
            <mxPoint x="725" y="555" as="sourcePoint" />
            <mxPoint x="724" y="505" as="targetPoint" />
          </mxGeometry>
        </mxCell>
        <mxCell id="EocNy_oLR_mmHMSm16_A-2" value="" style="endArrow=none;html=1;rounded=0;strokeWidth=2;" edge="1" parent="1">
          <mxGeometry width="50" height="50" relative="1" as="geometry">
            <mxPoint x="744" y="970" as="sourcePoint" />
            <mxPoint x="743" y="920" as="targetPoint" />
          </mxGeometry>
        </mxCell>
        <mxCell id="EocNy_oLR_mmHMSm16_A-3" value="" style="endArrow=none;html=1;rounded=0;strokeWidth=2;" edge="1" parent="1">
          <mxGeometry width="50" height="50" relative="1" as="geometry">
            <mxPoint x="717" y="1422" as="sourcePoint" />
            <mxPoint x="716" y="1372" as="targetPoint" />
          </mxGeometry>
        </mxCell>
        <mxCell id="dSo6xXMkXtQiZp0mlOPG-23" value="3:inputUpdateHireInfo()" style="text;html=1;resizable=0;autosize=1;align=left;verticalAlign=middle;points=[];fillColor=none;strokeColor=none;rounded=0;" vertex="1" parent="1">
          <mxGeometry x="280" y="796.5" width="150" height="30" as="geometry" />
        </mxCell>
      </root>
    </mxGraphModel>
  </diagram>
</mxfile>
